<mxfile host="app.diagrams.net" agent="Mozilla/5.0 (Windows NT 10.0; Win64; x64) AppleWebKit/537.36 (KHTML, like Gecko) Chrome/140.0.0.0 Safari/537.36" version="28.2.3">
  <diagram name="Page-1" id="jYmiTHrSMnSaIW2NLXl-">
    <mxGraphModel dx="1042" dy="596" grid="1" gridSize="10" guides="1" tooltips="1" connect="1" arrows="1" fold="1" page="1" pageScale="1" pageWidth="827" pageHeight="1169" math="0" shadow="0">
      <root>
        <mxCell id="0" />
        <mxCell id="1" parent="0" />
        <mxCell id="Ila8ZUzqEcOR07bZiMvR-3" value="" style="edgeStyle=orthogonalEdgeStyle;rounded=0;orthogonalLoop=1;jettySize=auto;html=1;" edge="1" parent="1" source="Ila8ZUzqEcOR07bZiMvR-1" target="Ila8ZUzqEcOR07bZiMvR-2">
          <mxGeometry relative="1" as="geometry" />
        </mxCell>
        <mxCell id="Ila8ZUzqEcOR07bZiMvR-1" value="start" style="ellipse;whiteSpace=wrap;html=1;" vertex="1" parent="1">
          <mxGeometry x="350" y="70" width="120" height="80" as="geometry" />
        </mxCell>
        <mxCell id="Ila8ZUzqEcOR07bZiMvR-5" value="" style="edgeStyle=orthogonalEdgeStyle;rounded=0;orthogonalLoop=1;jettySize=auto;html=1;" edge="1" parent="1" source="Ila8ZUzqEcOR07bZiMvR-2" target="Ila8ZUzqEcOR07bZiMvR-4">
          <mxGeometry relative="1" as="geometry" />
        </mxCell>
        <mxCell id="Ila8ZUzqEcOR07bZiMvR-2" value="tìm kiếm đồ" style="whiteSpace=wrap;html=1;" vertex="1" parent="1">
          <mxGeometry x="350" y="240" width="120" height="60" as="geometry" />
        </mxCell>
        <mxCell id="Ila8ZUzqEcOR07bZiMvR-7" value="Yes" style="edgeStyle=orthogonalEdgeStyle;rounded=0;orthogonalLoop=1;jettySize=auto;html=1;" edge="1" parent="1" source="Ila8ZUzqEcOR07bZiMvR-4" target="Ila8ZUzqEcOR07bZiMvR-6">
          <mxGeometry relative="1" as="geometry" />
        </mxCell>
        <mxCell id="Ila8ZUzqEcOR07bZiMvR-9" value="No" style="edgeStyle=orthogonalEdgeStyle;rounded=0;orthogonalLoop=1;jettySize=auto;html=1;" edge="1" parent="1" source="Ila8ZUzqEcOR07bZiMvR-4" target="Ila8ZUzqEcOR07bZiMvR-8">
          <mxGeometry relative="1" as="geometry" />
        </mxCell>
        <mxCell id="Ila8ZUzqEcOR07bZiMvR-4" value="kiểm tra món đồ" style="rhombus;whiteSpace=wrap;html=1;" vertex="1" parent="1">
          <mxGeometry x="370" y="330" width="80" height="80" as="geometry" />
        </mxCell>
        <mxCell id="Ila8ZUzqEcOR07bZiMvR-11" value="" style="edgeStyle=orthogonalEdgeStyle;rounded=0;orthogonalLoop=1;jettySize=auto;html=1;" edge="1" parent="1" source="Ila8ZUzqEcOR07bZiMvR-6">
          <mxGeometry relative="1" as="geometry">
            <mxPoint x="474" y="500" as="targetPoint" />
            <Array as="points">
              <mxPoint x="600" y="500" />
            </Array>
          </mxGeometry>
        </mxCell>
        <mxCell id="Ila8ZUzqEcOR07bZiMvR-6" value="mua món đồ" style="whiteSpace=wrap;html=1;" vertex="1" parent="1">
          <mxGeometry x="540" y="380" width="120" height="60" as="geometry" />
        </mxCell>
        <mxCell id="Ila8ZUzqEcOR07bZiMvR-8" value="Hỏi nhân viên hoặc rời đi" style="rounded=0;whiteSpace=wrap;html=1;" vertex="1" parent="1">
          <mxGeometry x="180" y="380" width="120" height="60" as="geometry" />
        </mxCell>
        <mxCell id="Ila8ZUzqEcOR07bZiMvR-15" value="end" style="ellipse;whiteSpace=wrap;html=1;" vertex="1" parent="1">
          <mxGeometry x="350" y="460" width="120" height="80" as="geometry" />
        </mxCell>
      </root>
    </mxGraphModel>
  </diagram>
</mxfile>
